# xmcd CD database file
#
# Track frame offsets:
#	150
#	12831
#	25313
#	39223
#	50267
#	63924
#	78646
#	89710
#	102108
#	117421
#	129157
#	142475
#	156842
#	173283
#	185567
#
# Disc length: 2737 seconds
#
# Revision: 0
# Processed by: cddbd v1.5.2PL0 Copyright (c) Steve Scherf et al.
# Submitted via: CDex 1.70beta2
#
DISCID=c10aaf0f
DTITLE=Smith, Joyce - Cdn.  - Exactly Where I Want To Be
DYEAR=2007
DGENRE=Country
TTITLE0=Shanty Girl
TTITLE1=Love Is Still Love
TTITLE2=Just A Tear Away From A Real Good Cry
TTITLE3=When My Heart Gets All the Breaks
TTITLE4=I Ain't Never
TTITLE5=If You're Still There
TTITLE6=Burning the Roadhouse Down
TTITLE7=Exactly Where I Want To Be
TTITLE8=The Baptism of Jesse Taylor
TTITLE9=Second Fiddle
TTITLE10=Better Get To Getting
TTITLE11=Catfish John
TTITLE12=I'm Not That Good At Goodbye
TTITLE13=Way Out To the Past
TTITLE14=He's Gone, Gone, Gone
EXTD=YEAR: 2007
EXTT0=
EXTT1=
EXTT2=
EXTT3=
EXTT4=
EXTT5=
EXTT6=
EXTT7=
EXTT8=
EXTT9=
EXTT10=
EXTT11=
EXTT12=
EXTT13=
EXTT14=
PLAYORDER=
